<?xml version="1.0" standalone="no"?>
<!DOCTYPE svg PUBLIC "-//W3C//DTD SVG 20010904//EN"
 "http://www.w3.org/TR/2001/REC-SVG-20010904/DTD/svg10.dtd">
<svg version="1.0" xmlns="http://www.w3.org/2000/svg"
 width="180.000000pt" height="180.000000pt" viewBox="0 0 500.000000 500.000000"
 preserveAspectRatio="xMidYMid meet">

<g transform="translate(0.000000,500.000000) scale(0.100000,-0.100000)"
fill="#000000" stroke="none">
<path d="M0 2500 l0 -2500 2500 0 2500 0 0 2500 0 2500 -2500 0 -2500 0 0
-2500z m1768 -782 c7 -7 12 -33 12 -60 0 -52 -15 -68 -64 -68 -25 0 -26 2 -26
70 l0 70 33 0 c18 0 38 -5 45 -12z m159 4 c6 -4 14 -24 18 -45 9 -46 -14 -87
-48 -87 -34 0 -47 19 -47 70 0 25 5 51 12 58 13 13 47 16 65 4z m156 1 c-21
-4 -23 -11 -25 -71 l-1 -67 -6 64 c-5 52 -10 66 -26 72 -13 5 -4 7 30 7 28 0
40 -3 28 -5z m151 -50 c10 -32 21 -64 23 -70 3 -7 1 -13 -5 -13 -5 0 -12 9
-15 20 -7 26 -32 25 -58 -1 l-22 -22 7 29 c11 46 38 114 46 114 3 0 14 -26 24
-57z m196 -13 c0 -40 -4 -70 -10 -70 -6 0 -10 30 -10 70 0 40 4 70 10 70 6 0
10 -30 10 -70z m115 17 l30 -52 6 55 6 55 1 -72 c1 -40 -1 -73 -5 -73 -5 0
-21 24 -38 53 l-30 52 -6 -55 -6 -55 -1 73 c-1 39 1 72 6 72 4 0 21 -24 37
-53z m185 45 c0 -4 -12 -8 -27 -7 -38 0 -36 -24 2 -45 33 -19 43 -44 25 -65
-15 -18 -56 -20 -66 -4 -5 8 1 10 18 6 17 -5 30 -2 38 8 15 18 8 29 -30 45
-29 12 -41 46 -23 63 9 10 63 9 63 -1z m87 -99 c-2 -21 -4 -4 -4 37 0 41 2 58
4 38 2 -21 2 -55 0 -75z m159 96 c4 -8 -1 -9 -15 -4 -31 10 -51 -11 -51 -55 0
-41 18 -64 44 -54 17 7 23 44 6 44 -5 0 -10 5 -10 10 0 6 9 10 20 10 22 0 27
-28 10 -61 -23 -43 -90 -8 -90 48 0 46 18 73 49 73 16 0 33 -5 37 -11z m125
-49 c26 0 29 3 29 30 0 17 5 30 10 30 6 0 10 -30 10 -70 0 -40 -4 -70 -10 -70
-5 0 -10 16 -10 36 0 33 -2 35 -27 32 -23 -2 -29 -9 -34 -38 -4 -23 -6 -9 -6
40 0 41 2 60 4 43 4 -29 8 -33 34 -33z m192 53 c-21 -4 -23 -10 -23 -69 0 -36
-4 -64 -10 -64 -6 0 -10 28 -10 64 0 59 -2 65 -22 69 -13 2 2 4 32 4 30 0 45
-2 33 -4z"/>
<path d="M1710 1661 c0 -56 1 -59 23 -53 28 7 37 20 37 54 0 29 -23 58 -46 58
-10 0 -14 -15 -14 -59z"/>
<path d="M1872 1703 c-8 -17 -8 -29 -4 -74 3 -22 31 -32 48 -18 17 14 18 81 2
97 -17 17 -36 15 -46 -5z"/>
<path d="M2196 1678 c-9 -35 -8 -38 15 -38 16 0 19 4 14 23 -11 35 -22 41 -29
15z"/>
</g>
</svg>
